<svg width="134" height="134" viewBox="0 0 134 134" fill="none" xmlns="http://www.w3.org/2000/svg">
<path d="M-2.91016e-06 67.4234C-1.69559e-06 95.2094 0.0286631 103.336 0.1597 104.915C0.633687 110.618 1.5315 114.166 3.45611 118.031C4.9354 121.01 6.65014 123.36 9.05386 125.679C13.4375 129.902 18.8305 132.461 25.2411 133.387C28.3532 133.838 28.9879 133.969 44.8844 133.995C50.1832 134.006 57.1568 133.995 66.5107 133.995C94.2742 133.995 102.392 133.965 103.969 133.832C109.518 133.371 113.008 132.501 116.827 130.658C124.136 127.136 129.624 120.411 131.671 112.487C132.377 109.743 132.766 106.713 132.951 102.823C133.022 101.175 133.074 84.3753 133.074 67.5657C133.074 50.756 133.053 33.9464 132.971 32.3392C132.759 27.8347 132.408 25.2191 131.661 22.3271C130.653 18.3982 128.8 14.7366 126.231 11.5981C123.662 8.45954 120.438 5.91968 116.786 4.15589C113.06 2.34901 109.436 1.43277 104.177 1.01816C103.03 0.928071 84.7494 0.890206 66.4932 0.890207C48.234 0.890207 29.9871 0.931151 28.8405 1.02124C23.4966 1.44097 19.9033 2.35721 16.1053 4.22245C12.9962 5.75292 10.6744 7.45231 8.30039 9.91949C4.09491 14.3215 1.53559 19.7063 0.610138 26.1241C0.160721 29.2332 0.0276361 29.8525 -3.85704e-06 45.7613L-2.91016e-06 67.4234Z" fill="url(#paint0_radial_5_46)"/>
<path d="M-2.91016e-06 67.4234C-1.69559e-06 95.2094 0.0286631 103.336 0.1597 104.915C0.633687 110.618 1.5315 114.166 3.45611 118.031C4.9354 121.01 6.65014 123.36 9.05386 125.679C13.4375 129.902 18.8305 132.461 25.2411 133.387C28.3532 133.838 28.9879 133.969 44.8844 133.995C50.1832 134.006 57.1568 133.995 66.5107 133.995C94.2742 133.995 102.392 133.965 103.969 133.832C109.518 133.371 113.008 132.501 116.827 130.658C124.136 127.136 129.624 120.411 131.671 112.487C132.377 109.743 132.766 106.713 132.951 102.823C133.022 101.175 133.074 84.3753 133.074 67.5657C133.074 50.756 133.053 33.9464 132.971 32.3392C132.759 27.8347 132.408 25.2191 131.661 22.3271C130.653 18.3982 128.8 14.7366 126.231 11.5981C123.662 8.45954 120.438 5.91968 116.786 4.15589C113.06 2.34901 109.436 1.43277 104.177 1.01816C103.03 0.928071 84.7494 0.890206 66.4932 0.890207C48.234 0.890207 29.9871 0.931151 28.8405 1.02124C23.4966 1.44097 19.9033 2.35721 16.1053 4.22245C12.9962 5.75292 10.6744 7.45231 8.30039 9.91949C4.09491 14.3215 1.53559 19.7063 0.610138 26.1241C0.160721 29.2332 0.0276361 29.8525 -3.85704e-06 45.7613L-2.91016e-06 67.4234Z" fill="url(#paint1_radial_5_46)"/>
<path d="M66.1421 18C52.7967 18 51.1219 18.0584 45.8804 18.2969C40.6492 18.5364 37.0784 19.3646 33.954 20.5798C30.7221 21.8349 27.9805 23.5138 25.2492 26.2461C22.5159 28.9774 20.8369 31.719 19.5777 34.9499C18.3595 38.0753 17.5303 41.6471 17.2948 46.8763C17.0614 52.1178 17 53.7937 17 67.139C17 80.4843 17.0594 82.154 17.2969 87.3955C17.5375 92.6268 18.3657 96.1975 19.5798 99.322C20.8359 102.554 22.5148 105.295 25.2472 108.027C27.9774 110.76 30.719 112.443 33.9489 113.698C37.0753 114.913 40.6471 115.742 45.8773 115.981C51.1188 116.22 52.7926 116.278 66.1369 116.278C79.4833 116.278 81.153 116.22 86.3945 115.981C91.6257 115.742 95.2006 114.913 98.3271 113.698C101.558 112.443 104.295 110.76 107.026 108.027C109.759 105.295 111.438 102.554 112.697 99.323C113.905 96.1975 114.734 92.6257 114.98 87.3965C115.216 82.155 115.277 80.4843 115.277 67.139C115.277 53.7937 115.216 52.1188 114.98 46.8773C114.734 41.6461 113.905 38.0753 112.697 34.9509C111.438 31.719 109.759 28.9774 107.026 26.2461C104.292 23.5128 101.559 21.8339 98.324 20.5798C95.1914 19.3646 91.6186 18.5364 86.3873 18.2969C81.1458 18.0584 79.4772 18 66.1277 18H66.1421ZM61.7339 26.8553C63.0422 26.8532 64.502 26.8553 66.1421 26.8553C79.2622 26.8553 80.8172 26.9023 85.9983 27.1378C90.7894 27.3569 93.3896 28.1574 95.1218 28.83C97.4149 29.7207 99.0498 30.7854 100.769 32.5052C102.489 34.2251 103.553 35.863 104.446 38.1562C105.118 39.8863 105.92 42.4866 106.138 47.2776C106.374 52.4577 106.425 54.0138 106.425 67.1277C106.425 80.2417 106.374 81.7978 106.138 86.9778C105.919 91.7689 105.118 94.3692 104.446 96.0993C103.555 98.3924 102.489 100.025 100.769 101.744C99.0488 103.464 97.4159 104.529 95.1218 105.419C93.3917 106.095 90.7894 106.893 85.9983 107.113C80.8182 107.348 79.2622 107.399 66.1421 107.399C53.0209 107.399 51.4659 107.348 46.2858 107.113C41.4948 106.891 38.8945 106.091 37.1613 105.418C34.8682 104.528 33.2302 103.463 31.5103 101.743C29.7905 100.023 28.7258 98.3893 27.8331 96.0952C27.1605 94.3651 26.3589 91.7648 26.1409 86.9737C25.9054 81.7937 25.8583 80.2376 25.8583 67.1154C25.8583 53.9933 25.9054 52.4454 26.1409 47.2653C26.36 42.4743 27.1605 39.874 27.8331 38.1419C28.7237 35.8487 29.7905 34.2107 31.5103 32.4909C33.2302 30.771 34.8682 29.7063 37.1613 28.8136C38.8935 28.138 41.4948 27.3395 46.2858 27.1194C50.8189 26.9146 52.5756 26.8532 61.7339 26.843V26.8553Z" fill="white"/>
<path d="M67.1351 46.1365C62.0077 45.6038 56.8392 46.6376 52.3113 49.1017C47.7833 51.5657 44.1084 55.3443 41.7713 59.9391C39.4342 64.5338 38.5445 69.7291 39.2196 74.8397C39.8948 79.9503 42.103 84.7363 45.5531 88.5665C49.0033 92.3968 53.5333 95.0914 58.5458 96.2951C63.5583 97.4988 68.8179 97.155 73.6311 95.3091C78.4443 93.4632 82.585 90.2018 85.5072 85.955C88.4294 81.7083 89.9958 76.6756 90 71.5206L81.203 71.5135C81.2003 74.8901 80.1742 78.1866 78.2601 80.9683C76.346 83.75 73.6338 85.8863 70.481 87.0954C67.3283 88.3045 63.8832 88.5297 60.5999 87.7413C57.3166 86.9528 54.3493 85.1878 52.0894 82.6789C49.8295 80.17 48.3831 77.0351 47.9409 73.6876C47.4986 70.34 48.0814 66.937 49.6123 63.9274C51.1431 60.9177 53.5502 58.4427 56.5161 56.8287C59.4821 55.2147 62.8675 54.5375 66.2261 54.8864L67.1351 46.1365Z" fill="white"/>
<path d="M51.5 73L56.5 65.5L65 71.5L83 46L90 51.5L67.5 83.5L51.5 73Z" fill="white"/>
<circle cx="90.5" cy="42.5" r="4.5" fill="white"/>
<defs>
<radialGradient id="paint0_radial_5_46" cx="0" cy="0" r="1" gradientUnits="userSpaceOnUse" gradientTransform="translate(143.323 98.6425) rotate(180) scale(131.886 122.697)">
<stop stop-color="#FFDD55"/>
<stop offset="0.1" stop-color="#FFDD55"/>
<stop offset="0.5" stop-color="#FF543E"/>
<stop offset="1" stop-color="#C837AB"/>
</radialGradient>
<radialGradient id="paint1_radial_5_46" cx="0" cy="0" r="1" gradientUnits="userSpaceOnUse" gradientTransform="translate(9.58639 156.297) rotate(-11.3224) scale(58.9541 243.072)">
<stop stop-color="#3771C8"/>
<stop offset="0.128" stop-color="#3771C8"/>
<stop offset="1" stop-color="#6600FF" stop-opacity="0"/>
</radialGradient>
</defs>
</svg>
